HIERARCHY
ROOT Hips
{
	OFFSET 0.000000 0.000000 0.000000
	CHANNELS 6 Xposition Yposition Zposition Zrotation Yrotation Xrotation 
	JOINT LeftUpLeg_virtual
	{
		OFFSET 0.000000 0.000000 0.000000
		CHANNELS 3 Zrotation Yrotation Xrotation
		JOINT LeftUpLeg
		{
			OFFSET 8.479694 -4.795517 -0.379053
			CHANNELS 3 Zrotation Yrotation Xrotation
			JOINT LeftLeg
			{
				OFFSET 0.485052 -32.551468 0.112863
				CHANNELS 3 Zrotation Yrotation Xrotation
				JOINT LeftFoot
				{
					OFFSET 0.438033 -32.635670 -3.012641
					CHANNELS 3 Zrotation Yrotation Xrotation
					JOINT LeftToeBase
					{
						OFFSET 0.970169 -13.225353 11.864223
						CHANNELS 3 Zrotation Yrotation Xrotation
						End Site
						{
							OFFSET 0.000000 0.000000 0.000000
						}
					}
				}
			}
		}
	}
	JOINT RightUpLeg_virtual
	{
		OFFSET 0.000000 0.000000 0.000000
		CHANNELS 3 Zrotation Yrotation Xrotation
		JOINT RightUpLeg
		{
			OFFSET -8.479694 -4.795517 -0.379053
			CHANNELS 3 Zrotation Yrotation Xrotation
			JOINT RightLeg
			{
				OFFSET -0.484100 -32.551483 0.112903
				CHANNELS 3 Zrotation Yrotation Xrotation
				JOINT RightFoot
				{
					OFFSET -0.438985 -32.635651 -3.012681
					CHANNELS 3 Zrotation Yrotation Xrotation
					JOINT RightToeBase
					{
						OFFSET -0.970169 -13.225354 11.864223
						CHANNELS 3 Zrotation Yrotation Xrotation
						End Site
						{
							OFFSET 0.000000 0.000000 0.000000
						}
					}
				}
			}
		}
	}
	JOINT Spine_virtual
	{
		OFFSET 0.000000 0.000000 0.000000
		CHANNELS 3 Zrotation Yrotation Xrotation
		JOINT Spine
		{
			OFFSET 0.000000 7.722015 1.166203
			CHANNELS 3 Zrotation Yrotation Xrotation
			JOINT Spine1
			{
				OFFSET 0.000000 12.024086 0.248766
				CHANNELS 3 Zrotation Yrotation Xrotation
				JOINT Spine2
				{
					OFFSET -0.000000 11.503036 -0.491240
					CHANNELS 3 Zrotation Yrotation Xrotation
					JOINT Neck_virtual
					{
						OFFSET 0.000000 0.000000 0.000000
						CHANNELS 3 Zrotation Yrotation Xrotation
						JOINT Neck
						{
							OFFSET 0.000000 18.430687 -3.123054
							CHANNELS 3 Zrotation Yrotation Xrotation
							JOINT Head
							{
								OFFSET -0.000000 9.051071 1.034021
								CHANNELS 3 Zrotation Yrotation Xrotation
								End Site
								{
									OFFSET 0.000000 0.000000 0.000000
								}
							}
						}
					}
					JOINT LeftShoulder_virtual
					{
						OFFSET 0.000000 0.000000 0.000000
						CHANNELS 3 Zrotation Yrotation Xrotation
						JOINT LeftShoulder
						{
							OFFSET 6.197824 13.665230 -4.064723
							CHANNELS 3 Zrotation Yrotation Xrotation
							JOINT LeftArm
							{
								OFFSET 7.778132 -0.187073 -1.709282
								CHANNELS 3 Zrotation Yrotation Xrotation
								JOINT LeftForeArm
								{
									OFFSET 21.954697 0.000000 -2.041093
									CHANNELS 3 Zrotation Yrotation Xrotation
									JOINT LeftHand
									{
										OFFSET 22.992908 0.000000 -0.870901
										CHANNELS 3 Zrotation Yrotation Xrotation
										End Site
										{
											OFFSET 0.000000 0.000000 0.000000
										}
									}
								}
							}
						}
					}
					JOINT RightShoulder_virtual
					{
						OFFSET 0.000000 0.000000 0.000000
						CHANNELS 3 Zrotation Yrotation Xrotation
						JOINT RightShoulder
						{
							OFFSET -6.197824 13.665230 -4.064723
							CHANNELS 3 Zrotation Yrotation Xrotation
							JOINT RightArm
							{
								OFFSET -7.778132 -0.187073 -1.709282
								CHANNELS 3 Zrotation Yrotation Xrotation
								JOINT RightForeArm
								{
									OFFSET -21.954697 0.000000 -2.041093
									CHANNELS 3 Zrotation Yrotation Xrotation
									JOINT RightHand
									{
										OFFSET -22.992908 0.000000 -0.870901
										CHANNELS 3 Zrotation Yrotation Xrotation
										End Site
										{
											OFFSET 0.000000 0.000000 0.000000
										}
									}
								}
							}
						}
					}
				}
			}
		}
	}
}
MOTION
Frames: 5
Frame Time: 0.033333
-1.052749 81.545898 -10.934937 179.883318 2.296491 -179.959598 -3.950929 -1.706073 10.760914 -0.824613 -0.823720 -23.050835 7.535655 1.755734 28.097238 -2.468567 -8.779293 -6.910133 0.000000 0.000000 0.000000 -0.112256 -1.736672 10.432863 -4.477728 1.746356 -21.653206 -1.129490 4.048349 30.695919 9.963401 4.402373 -9.377787 0.000000 0.000000 0.000000 2.501039 1.333722 -1.918215 -7.016745 2.347080 -0.475528 -0.804946 -3.133432 3.703243 0.002765 0.025098 0.020880 -1.163382 -2.053840 4.274059 0.490498 -1.381754 -15.620489 0.000000 0.000000 0.000000 0.396625 -1.251380 1.778212 18.841676 8.613905 -2.155529 -0.792071 -1.916834 -47.895445 -2.472917 -37.247829 -7.983019 0.000000 0.000000 0.000000 -3.556402 -0.136611 1.204391 4.562312 -14.343172 -5.206545 7.493307 -5.774794 -47.498925 -2.113045 33.535372 -3.460964 0.000000 0.000000 0.000000 
-1.064851 81.545959 -10.966486 179.906390 2.494036 179.985306 -3.879837 -1.759962 10.908324 -0.729430 -1.038374 -22.936484 7.531531 1.339235 28.335695 -2.756484 -9.073502 -6.593145 0.000000 0.000000 0.000000 -0.040586 -1.788749 10.502452 -4.329223 1.339083 -21.554764 -1.164624 3.615715 30.997202 9.610019 3.995478 -9.027768 0.000000 0.000000 0.000000 2.494434 1.388175 -1.872129 -6.989273 2.394964 -0.458751 -0.820416 -3.089624 3.696750 -0.006983 0.070140 0.018896 -1.144845 -2.028561 4.244438 0.456969 -1.420882 -15.604715 0.000000 0.000000 0.000000 0.462081 -1.215025 1.718065 18.828072 8.521277 -2.232003 -0.891263 -1.787439 -47.772126 -2.416408 -37.261363 -7.925372 0.000000 0.000000 0.000000 -3.498421 -0.089646 1.200702 4.554086 -14.357334 -5.221582 7.515530 -5.819342 -47.411734 -2.145132 33.522336 -3.480500 0.000000 0.000000 0.000000 
-1.071476 81.541702 -11.005969 179.872663 2.410555 -179.997410 -3.931343 -1.799591 10.924945 -0.742682 -1.049846 -22.960511 7.527452 1.324417 28.387381 -2.770840 -9.097397 -6.592651 0.000000 0.000000 0.000000 -0.085517 -1.831845 10.523985 -4.350835 1.273864 -21.563761 -1.146896 3.582779 31.012016 9.605954 3.969265 -9.059527 0.000000 0.000000 0.000000 2.489159 1.432685 -1.867559 -6.996790 2.455240 -0.460730 -0.801200 -3.043235 3.707912 -0.002560 0.089599 0.034932 -1.159150 -2.037646 4.260360 0.500683 -1.468520 -15.546489 0.000000 0.000000 0.000000 0.407860 -1.287281 1.790754 18.733831 8.277999 -2.231054 -0.878942 -1.714199 -47.854515 -2.414788 -37.224090 -7.784396 0.000000 0.000000 0.000000 -3.547331 -0.184239 1.162797 4.577054 -14.492101 -5.264271 7.553889 -5.976353 -47.541521 -1.986588 33.591372 -3.302657 0.000000 0.000000 0.000000 
-1.074858 81.536270 -11.043767 179.958546 2.461782 -179.997191 -3.891213 -1.720957 10.938493 -0.704663 -0.979282 -22.969542 7.515773 1.310390 28.425289 -2.782123 -9.135499 -6.650299 0.000000 0.000000 0.000000 -0.040851 -1.774713 10.525042 -4.308445 1.262232 -21.561630 -1.131171 3.587151 31.053359 9.610976 3.946670 -9.045634 0.000000 0.000000 0.000000 2.524961 1.376637 -1.874290 -6.920334 2.407894 -0.488725 -0.751742 -3.065485 3.673804 0.039632 0.055673 0.004660 -1.214870 -2.073974 4.266979 0.476752 -1.565413 -15.501703 0.000000 0.000000 0.000000 0.401570 -1.182469 1.724972 18.588397 8.098189 -2.408397 -0.956031 -1.444407 -47.707458 -2.456323 -37.163046 -7.544606 0.000000 0.000000 0.000000 -3.587238 -0.042631 1.237491 4.626748 -14.405934 -5.156311 7.548708 -6.170753 -47.641276 -2.112216 33.714811 -3.441742 0.000000 0.000000 0.000000 
-1.080669 81.529449 -11.075770 179.872076 2.441044 -179.994691 -3.973514 -1.735945 10.928076 -0.695941 -1.003732 -22.962891 7.498563 1.346058 28.496430 -2.757763 -9.141525 -6.671078 0.000000 0.000000 0.000000 -0.118975 -1.789238 10.516558 -4.325670 1.202746 -21.561017 -1.111289 3.561127 31.104989 9.645136 3.932768 -9.077484 0.000000 0.000000 0.000000 2.476808 1.444352 -1.905693 -6.890679 2.466808 -0.514136 -0.764948 -2.981239 3.681863 -0.002595 0.100611 0.029851 -1.132945 -1.954277 4.246569 0.480625 -1.661757 -15.406612 0.000000 0.000000 0.000000 0.425703 -1.209355 1.817403 18.439235 7.629536 -2.385145 -1.010246 -1.284207 -47.672258 -2.319098 -37.181617 -7.417218 0.000000 0.000000 0.000000 -3.515445 -0.125856 1.165351 4.695396 -14.488911 -5.229773 7.623117 -6.507951 -47.801045 -2.008761 33.852726 -3.262153 0.000000 0.000000 0.000000 
